<svg xmlns="http://www.w3.org/2000/svg" xmlns:xlink="http://www.w3.org/1999/xlink" width="190" height="50" viewBox="0 0 190 50">
    <defs>
        <path id="a" d="M0 48.667h185.892V1H0z"/>
    </defs>
    <g fill="none" fill-rule="evenodd" transform="translate(2)">
        <path fill="#F2303A" d="M14.772 44.387c3.463-2.557 8.106-3.835 12.749-3.835 6.754 0 13.508 2.705 16.63 8.115h10.89l-3.273-5.67c-7.042-12.198-24.1-13.397-36.996 1.39m26.555-19.476L27.52 1.001 0 48.666H10.89c6.108-10.579 16.422-20.005 30.437-23.756"/>
        <path fill="#FFF" d="M73.348 18.828V35.38H71.25v-2.846c-.893 1.086-1.895 1.9-3.006 2.45-1.11.546-2.326.822-3.645.822-2.34 0-4.34-.852-6-2.55-1.657-1.698-2.488-3.764-2.488-6.2 0-2.382.841-4.417 2.513-6.11 1.672-1.692 3.686-2.544 6.038-2.544 1.36 0 2.591.29 3.686.867 1.101.58 2.066 1.449 2.902 2.602v-3.043h2.098zm-8.52 1.63a6.467 6.467 0 0 0-3.287.872 6.42 6.42 0 0 0-2.393 2.46 6.736 6.736 0 0 0-.888 3.345c0 1.169.296 2.285.893 3.348.602 1.065 1.402 1.89 2.415 2.488a6.312 6.312 0 0 0 3.244.887 6.67 6.67 0 0 0 3.318-.883c1.043-.586 1.848-1.38 2.41-2.388.564-1.001.845-2.133.845-3.39 0-1.916-.633-3.52-1.895-4.807-1.262-1.29-2.814-1.932-4.662-1.932zm12.995 14.92h2.13V12.443h-2.13v22.937zm4.315-16.55h2.19l5.067 12.019 5.307-12.02h.384l5.291 12.02 5.155-12.02h2.222l-7.18 16.553h-.41l-5.266-11.848-5.305 11.848h-.395l-7.06-16.552zm44.613 0V35.38h-2.098v-2.846c-.892 1.086-1.894 1.9-3.006 2.45-1.11.546-2.326.822-3.644.822-2.342 0-4.34-.852-6.002-2.55-1.656-1.698-2.487-3.764-2.487-6.2 0-2.382.841-4.417 2.513-6.11 1.672-1.692 3.686-2.544 6.038-2.544 1.36 0 2.591.29 3.687.867 1.1.58 2.065 1.449 2.901 2.602v-3.043h2.098zm-8.52 1.63a6.467 6.467 0 0 0-3.287.872 6.413 6.413 0 0 0-2.393 2.46 6.736 6.736 0 0 0-.888 3.345c0 1.169.296 2.285.893 3.348.602 1.065 1.402 1.89 2.415 2.488a6.31 6.31 0 0 0 3.245.887 6.667 6.667 0 0 0 3.317-.883c1.043-.586 1.848-1.38 2.41-2.388.565-1.001.845-2.133.845-3.39 0-1.916-.633-3.52-1.895-4.807-1.26-1.29-2.814-1.932-4.662-1.932zm11.531-1.63h2.253l5.691 12.75 5.518-12.75h2.27l-9.875 22.605h-2.249l3.193-7.3-6.8-15.305zm26.805 1.812l-1.37 1.417c-1.138-1.106-2.249-1.661-3.333-1.661a2.51 2.51 0 0 0-1.77.685c-.494.457-.738.992-.738 1.6 0 .535.202 1.048.607 1.536.405.494 1.258 1.08 2.555 1.75 1.583.82 2.66 1.609 3.224 2.373.561.768.841 1.635.841 2.6 0 1.356-.478 2.508-1.433 3.453-.95.94-2.144 1.413-3.572 1.413a6.249 6.249 0 0 1-2.73-.623 6.021 6.021 0 0 1-2.156-1.72l1.34-1.521c1.085 1.226 2.237 1.838 3.452 1.838.852 0 1.58-.27 2.176-.82.597-.545.898-1.19.898-1.932 0-.606-.197-1.151-.59-1.625-.402-.467-1.289-1.058-2.68-1.764-1.49-.774-2.503-1.533-3.043-2.285-.534-.748-.805-1.604-.805-2.57 0-1.256.426-2.3 1.283-3.131.857-.83 1.942-1.251 3.25-1.251 1.521 0 3.052.747 4.594 2.238z"/>
        <path fill="#F2303A" d="M174.02 28.203h-8.735l-3.41 7.177h-3.587l10.797-22.86h1.198l10.66 22.86h-3.496l-3.426-7.177zm-1.454-3.152l-2.888-6.154-2.92 6.154h5.808z"/>
        <mask id="b" fill="#fff">
            <use xlink:href="#a"/>
        </mask>
        <path fill="#F2303A" d="M182.663 35.379h3.229v-22.86h-3.229z" mask="url(#b)"/>
    </g>
</svg>
